<?xml version="1.0" encoding="utf-8"?>
<!-- Generator: Adobe Illustrator 25.4.1, SVG Export Plug-In . SVG Version: 6.00 Build 0)  -->
<svg version="1.1" id="Layer_1" xmlns="http://www.w3.org/2000/svg" xmlns:xlink="http://www.w3.org/1999/xlink" x="0px" y="0px"
	 viewBox="0 0 164 56" style="enable-background:new 0 0 164 56;" xml:space="preserve">
<style type="text/css">
	.st0{fill:#010101;}
</style>
<path class="st0" d="M46.2,12.3L28,1.8C27.1,1.3,26,1,25,1s-2.1,0.3-3,0.8L3.8,12.3c-1.8,1.1-3,3-3,5.1v21.1c0,2.1,1.1,4.1,3,5.1
	L22,54.2c0.9,0.5,1.9,0.8,3,0.8s2.1-0.3,3-0.8l18.2-10.5c1.8-1.1,3-3,3-5.1V17.5C49.2,15.3,48.1,13.4,46.2,12.3z M22,47.3L6.8,38.5
	V20.9L22,29.7V47.3z M25,24.6L9.7,15.8L25,6.9l15.3,8.8L25,24.6z M43.2,38.5L28,47.3V29.7l15.3-8.8V38.5z"/>
<path class="st0" d="M127.2,13.1c-1.6,0-3,1.3-3,3v23.7c0,1.6,1.3,3,3,3c1.6,0,3-1.3,3-3V16.1C130.2,14.5,128.8,13.1,127.2,13.1z"/>
<path class="st0" d="M103.5,13.2c-8.2,0-14.8,6.6-14.8,14.8c0,8.2,6.6,14.8,14.8,14.8s14.8-6.6,14.8-14.8
	C118.3,19.8,111.6,13.2,103.5,13.2z M103.5,36.9c-4.9,0-8.9-4-8.9-8.9s4-8.9,8.9-8.9s8.9,4,8.9,8.9S108.4,36.9,103.5,36.9z"/>
<path class="st0" d="M161.4,34.3c-0.5-0.5-1.3-0.9-2.1-0.9c-0.8,0-1.6,0.3-2.1,0.9c-1.6,1.6-3.8,2.6-6.3,2.6c-2.5,0-4.7-1-6.3-2.6
	c-1.6-1.6-2.6-3.8-2.6-6.3c0-2.5,1-4.7,2.6-6.3s3.8-2.6,6.3-2.6c1.4,0,2.7,0.3,3.8,0.9l-5.9,5.9c0,0,0,0,0,0.1
	c-0.1,0.1-0.2,0.2-0.3,0.4c0,0.1-0.1,0.2-0.1,0.2c0,0.1-0.1,0.2-0.1,0.3c0,0.1-0.1,0.2-0.1,0.3c0,0.1-0.1,0.2-0.1,0.3
	c0,0.2,0,0.3,0,0.5c0,0,0,0,0,0.1c0,0.2,0,0.4,0.1,0.6c0,0,0,0.1,0,0.1c0,0.1,0.1,0.3,0.1,0.4c0,0,0,0,0,0c0.1,0.3,0.3,0.6,0.6,0.9
	c0.3,0.3,0.6,0.5,0.9,0.6c0,0,0,0,0,0c0.1,0.1,0.3,0.1,0.4,0.1c0,0,0.1,0,0.1,0c0.2,0,0.4,0.1,0.6,0.1c0,0,0,0,0.1,0
	c0.2,0,0.3,0,0.5,0c0.1,0,0.2,0,0.3-0.1c0.1,0,0.2,0,0.3-0.1c0.1,0,0.2-0.1,0.3-0.1s0.2-0.1,0.2-0.1c0.1-0.1,0.3-0.2,0.4-0.3
	c0,0,0,0,0.1-0.1l8.4-8.4c0.5-0.5,0.9-1.3,0.9-2.1s-0.3-1.6-0.9-2.1c-2.7-2.7-6.4-4.3-10.5-4.3c-4.1,0-7.8,1.7-10.5,4.3
	c-2.7,2.7-4.3,6.4-4.3,10.5c0,4.1,1.7,7.8,4.3,10.5c2.7,2.7,6.4,4.3,10.5,4.3s7.8-1.7,10.5-4.3c0.5-0.5,0.9-1.3,0.9-2.1
	C162.3,35.6,162,34.8,161.4,34.3z"/>
<path class="st0" d="M84.2,13.2c-4.1,0-7.8,1.7-10.5,4.3c-2.7,2.7-4.3,6.4-4.3,10.5v11.9c0,1.6,1.3,3,3,3s3-1.3,3-3V28
	c0-2.5,1-4.7,2.6-6.3c1.6-1.6,3.8-2.6,6.3-2.6c1.6,0,3-1.3,3-3C87.2,14.5,85.9,13.2,84.2,13.2z"/>
</svg>
