<?xml version="1.0" encoding="utf-8"?>
<!-- Generator: Adobe Illustrator 26.2.1, SVG Export Plug-In . SVG Version: 6.00 Build 0)  -->
<svg version="1.1" id="Layer_1" xmlns="http://www.w3.org/2000/svg" xmlns:xlink="http://www.w3.org/1999/xlink" x="0px" y="0px"
	 viewBox="0 0 60 60" style="enable-background:new 0 0 60 60;" xml:space="preserve">
<g>
	<path d="M48.8,49.7L31.4,32.3L20.3,21.2L7.9,8.8C6.7,7.6,4.9,7.5,4,8.4c-1,1-0.8,2.7,0.4,3.9l10.9,10.9h-1.6c-0.8,0-1.5,0.3-2,0.8
		c-0.5,0.5-0.8,1.3-0.8,2v0v9.9c0,0.8,0.3,1.5,0.8,2c0.5,0.5,1.3,0.8,2,0.8h4l11.8,7.9c0.2,0.1,0.5,0.2,0.7,0.2l0,0
		c0.3,0,0.7-0.1,0.9-0.4c0.2-0.2,0.4-0.6,0.4-0.9v-6.2l13.8,13.8c1.2,1.2,2.9,1.3,3.9,0.4C50.1,52.6,49.9,50.9,48.8,49.7z"/>
	<path d="M31.4,16.2c0-0.3-0.1-0.6-0.3-0.9c-0.2-0.2-0.5-0.4-0.8-0.4c-0.3,0-0.6,0-0.9,0.2l-5.2,3.5l7.2,7.2V16.2z"/>
</g>
</svg>
