<?xml version="1.0" encoding="utf-8"?>
<!-- Generator: Adobe Illustrator 25.4.1, SVG Export Plug-In . SVG Version: 6.00 Build 0)  -->
<svg version="1.1" id="Layer_1" xmlns="http://www.w3.org/2000/svg" xmlns:xlink="http://www.w3.org/1999/xlink" x="0px" y="0px"
	 viewBox="0 0 60 60" style="enable-background:new 0 0 60 60;" xml:space="preserve">
<path id="Icon_Align_Right" d="M3.3,10h53.3c1.8,0,3.3,1.5,3.3,3.3s-1.5,3.3-3.3,3.3H3.3c-1.8,0-3.3-1.5-3.3-3.3S1.5,10,3.3,10z
	 M23.3,26.7h33.3c1.8,0,3.3,1.5,3.3,3.3s-1.5,3.3-3.3,3.3H23.3c-1.8,0-3.3-1.5-3.3-3.3S21.5,26.7,23.3,26.7z M43.3,43.3h13.3
	c1.8,0,3.3,1.5,3.3,3.3c0,1.8-1.5,3.3-3.3,3.3H43.3c-1.8,0-3.3-1.5-3.3-3.3C40,44.8,41.5,43.3,43.3,43.3z"/>
</svg>
